<svg width="1200" height="1200" viewBox="0 0 1200 1200" fill="none" xmlns="http://www.w3.org/2000/svg">
<path d="M889.677 567.504C889.677 735.292 750.154 871.245 577.901 871.245C405.648 871.245 266.125 735.292 266.125 567.504C266.125 399.715 405.802 263.762 577.901 263.762C750 263.762 889.677 399.869 889.677 567.504ZM439.3 201.015C441.605 207.782 447.598 212.088 454.82 212.088C460.351 212.088 465.422 209.627 468.342 205.321C471.108 201.322 471.722 196.555 470.032 191.633C454.205 146.418 436.534 100.741 417.327 55.8338C414.868 50.1435 409.951 46.76 404.112 46.76C398.58 46.76 393.202 49.8359 389.975 54.6035C386.902 59.3711 386.287 65.0614 388.592 70.2904C406.724 112.584 423.78 156.568 439.3 201.015ZM249.991 286.831C260.286 296.674 272.886 308.824 290.404 314.36C291.786 314.822 293.323 315.129 294.706 315.129C301.006 315.129 306.384 310.515 307.306 304.056C308.382 297.443 304.54 291.445 298.087 289.446C286.562 285.755 277.342 276.681 268.43 267.915C266.894 266.377 265.203 264.685 263.667 263.301L147.807 152.57C145.195 150.109 141.968 148.879 138.588 148.879C133.056 148.879 127.831 152.416 125.68 157.645C123.683 162.413 124.912 167.795 128.753 171.486L249.991 286.831ZM17.0427 428.167C69.9017 453.389 128.6 466.769 186.837 466.769C190.371 466.769 193.751 466.769 197.286 466.615C205.276 466.462 211.269 460.002 211.269 451.851C211.115 443.854 205.122 437.856 197.439 437.856H196.978C193.752 438.01 190.371 438.01 187.144 438.01C133.056 438.01 78.9676 425.86 30.7184 402.791C28.7208 401.869 26.5696 401.253 24.2647 401.253C17.35 401.253 11.3572 406.175 9.66699 413.095C8.13039 419.555 11.0499 425.399 17.0427 428.167ZM196.825 664.086H197.286C205.122 664.086 211.115 658.088 211.269 650.091C211.422 641.94 205.43 635.48 197.286 635.327C188.988 635.173 180.537 635.019 172.239 635.019C121.224 635.019 69.4407 639.018 18.272 647.169C11.0499 648.245 6.44014 654.089 7.05478 661.318C7.66942 668.238 13.3548 675.467 21.9598 675.467C22.7281 675.467 23.4964 675.467 24.4183 675.313C72.6675 667.777 122.3 663.932 171.778 663.932C180.076 663.778 188.527 663.932 196.825 664.086ZM457.893 923.535C451.593 923.535 446.215 927.226 444.063 933.07C423.78 986.898 401.5 1040.57 378.143 1092.71C375.992 1097.32 376.453 1102.55 379.219 1106.86C381.985 1111.16 386.902 1113.93 391.819 1113.93C397.044 1113.93 401.5 1111.01 403.651 1105.93C427.775 1052.11 450.671 997.048 471.415 942.144C473.105 937.838 472.644 933.378 470.186 929.841C467.42 925.996 462.81 923.535 457.893 923.535ZM719.883 910.463C718.654 904.465 713.429 900.312 706.822 900.312C702.058 900.312 697.295 902.465 694.375 906.003C691.917 909.078 690.995 912.77 691.763 916.614C706.053 987.667 724.339 1058.72 746.159 1127.77C748.003 1133.31 753.227 1137 759.527 1137C764.598 1137 769.515 1134.69 772.127 1131C774.432 1127.93 775.047 1123.93 773.818 1120.08C752.305 1051.64 734.173 981.054 719.883 910.463ZM1184.24 564.736C1184.09 564.736 1183.94 564.736 1183.78 564.736C1138.91 566.273 1093.28 567.042 1048.41 567.042C1022.59 567.042 996.317 566.735 970.502 566.273C970.502 566.273 970.348 566.273 970.195 566.273C962.973 566.273 957.595 572.271 957.441 580.422C957.287 588.573 962.819 595.033 970.195 595.187C996.163 595.648 1022.44 595.956 1048.41 595.956C1093.58 595.956 1139.22 595.187 1184.4 593.649C1191.77 593.341 1197.15 587.036 1197 578.731C1196.69 570.58 1191.46 564.736 1184.24 564.736ZM1083.75 218.393C1081.91 212.088 1076.22 207.628 1069.92 207.628C1067.15 207.628 1064.54 208.397 1062.08 210.088C1004.92 247.46 947.76 286.216 891.828 325.433C886.604 329.124 884.453 335.43 886.297 341.428C888.294 347.58 893.826 351.886 899.819 351.886C902.584 351.886 905.35 350.963 907.809 349.271C963.587 310.208 1020.6 271.452 1077.6 234.234C1083.29 230.543 1085.59 224.391 1083.75 218.393ZM716.502 195.786C723.263 195.786 728.795 191.326 730.178 184.866L763.983 37.3786C764.905 33.0724 764.137 28.7662 761.371 25.5366C758.605 21.9993 754.149 20 749.539 20C742.778 20 737.246 24.46 735.864 30.9193L702.058 178.407C701.136 182.713 701.905 187.019 704.671 190.249C707.436 193.633 711.893 195.786 716.502 195.786ZM1093.43 874.783L933.47 796.963C931.012 795.733 928.553 795.272 926.094 795.272C919.487 795.272 913.648 799.885 912.265 806.345C910.728 813.112 914.263 819.725 920.87 822.954L1080.83 900.774C1083.29 902.004 1085.75 902.465 1088.05 902.465C1094.66 902.465 1100.5 897.852 1101.88 891.392C1103.57 884.779 1100.04 878.012 1093.43 874.783ZM270.274 809.882C263.667 806.652 256.137 807.729 250.913 812.804C201.896 859.25 151.034 904.619 99.558 947.681C94.9482 951.525 92.6433 957.216 93.4116 963.06C94.1799 969.058 97.7141 974.441 102.939 977.055C108.317 979.67 114.617 978.901 119.534 974.748C172.546 930.302 224.791 883.703 274.884 836.334C278.879 832.643 280.569 827.568 279.955 822.647C279.186 817.264 275.499 812.496 270.274 809.882Z" fill="#FFF22F"/>
<path d="M514.535 476.499C509.762 453.624 498.522 425.068 471.886 421.536C441.554 417.545 421.076 444.565 416.303 471.279C414.61 480.951 399.675 476.806 401.522 467.134C407.527 433.512 435.087 402.345 471.886 406.03C506.22 409.408 523.157 442.109 529.469 472.354C531.317 482.18 516.536 486.171 514.535 476.499ZM728.395 408.18C715.77 394.362 692.829 392.059 675.123 393.287C637.093 395.897 600.91 423.686 602.142 464.37C602.45 474.196 617.847 474.196 617.539 464.37C616.615 432.437 645.253 410.79 675.123 408.64C688.21 407.719 707.148 408.18 716.848 418.312C726.086 427.985 726.394 443.644 726.856 456.387C727.164 466.213 742.56 466.213 742.252 456.387C741.637 439.653 740.251 421.076 728.395 408.18ZM753.954 566.312C743.484 628.798 699.911 683.454 641.712 708.632C582.28 734.271 512.225 723.371 460.03 686.371C427.543 663.188 402.6 629.105 393.054 590.263C390.745 580.744 375.81 584.736 378.273 594.408C396.134 666.565 460.954 720.146 532.703 734.271C601.372 747.781 671.119 723.985 718.233 672.553C744.254 643.997 762.576 608.686 768.889 570.458C770.428 560.785 755.494 556.487 753.954 566.312Z" fill="black"/>
</svg>
